<?xml version="1.0" encoding="UTF-8" standalone="no"?>
<svg width="20px" height="21px" viewBox="0 0 20 21" version="1.1" xmlns="http://www.w3.org/2000/svg" xmlns:xlink="http://www.w3.org/1999/xlink" xmlns:sketch="http://www.bohemiancoding.com/sketch/ns">
    <g stroke="none" stroke-width="1" fill="none" fill-rule="evenodd" sketch:type="MSPage">
        <path d="M20,18.9528067 L14.2319405,13.1841821 C15.3913403,11.7899155 16.0892808,9.99913222 16.0892808,8.04464042 C16.0892808,3.60142478 12.4878964,0 8.04464042,0 C3.60223202,-4.03620476e-05 0,3.60138442 0,8.04460006 C0,12.4870085 3.60223202,16.0892405 8.04464042,16.0892405 C9.9995762,16.0892405 11.7899155,15.3913 13.1841821,14.2319001 L18.9522416,20.0005247 L20,18.9528067 L20,18.9528067 Z M0.846795758,8.04460006 C0.846795758,4.07563848 4.07523486,0.846755396 8.04464042,0.846755396 C12.0132388,0.846755396 15.2424851,4.07563848 15.2424851,8.04460006 C15.2424851,12.0135616 12.0132388,15.2424447 8.04464042,15.2424447 C4.07523486,15.2424447 0.846795758,12.013602 0.846795758,8.04460006 L0.846795758,8.04460006 Z" id="Shape" fill="#666666" sketch:type="MSShapeGroup"></path>
    </g>
</svg>